<?xml version="1.0" encoding="UTF-8" standalone="no"?>
<!-- Created with Inkscape (http://www.inkscape.org/) -->

<svg
   width="493.55206mm"
   height="305.30234mm"
   viewBox="0 0 493.55206 305.30234"
   version="1.1"
   id="svg5"
   inkscape:version="1.1.2 (b8e25be833, 2022-02-05)"
   sodipodi:docname="bg.svg"
   xmlns:inkscape="http://www.inkscape.org/namespaces/inkscape"
   xmlns:sodipodi="http://sodipodi.sourceforge.net/DTD/sodipodi-0.dtd"
   xmlns="http://www.w3.org/2000/svg"
   xmlns:svg="http://www.w3.org/2000/svg">
  <sodipodi:namedview
     id="namedview7"
     pagecolor="#ffffff"
     bordercolor="#666666"
     borderopacity="1.0"
     inkscape:pageshadow="2"
     inkscape:pageopacity="0.0"
     inkscape:pagecheckerboard="0"
     inkscape:document-units="mm"
     showgrid="false"
     inkscape:zoom="0.17871094"
     inkscape:cx="2098.3607"
     inkscape:cy="2031.2131"
     inkscape:window-width="1280"
     inkscape:window-height="777"
     inkscape:window-x="-8"
     inkscape:window-y="-8"
     inkscape:window-maximized="1"
     inkscape:current-layer="layer1" />
  <defs
     id="defs2" />
  <g
     inkscape:label="Camada 1"
     inkscape:groupmode="layer"
     id="layer1"
     transform="translate(137.07224,38.348584)">
    <rect
       style="fill:#be2a2a;fill-opacity:0;stroke:#8a1831;stroke-width:2;stroke-linecap:square;stroke-miterlimit:4;stroke-dasharray:none;stroke-opacity:1"
       id="rect993"
       width="142.12895"
       height="142.12895"
       x="-69.042519"
       y="82.058159"
       transform="rotate(-45)" />
    <path
       id="rect2605"
       style="fill-opacity:0;stroke:#8a1831;stroke-width:0.673;stroke-linecap:square;stroke-miterlimit:4;stroke-dasharray:0.673, 2.019;stroke-dashoffset:1.4133;stroke-opacity:1"
       d="m 12.221426,107.21506 97.132434,-96.13046 97.28575,96.13046 -97.02403,95.97715 z"
       sodipodi:nodetypes="ccccc" />
    <rect
       style="fill:#be2a2a;fill-opacity:0;stroke:#8a1831;stroke-width:1.44531;stroke-linecap:square;stroke-miterlimit:4;stroke-dasharray:none;stroke-opacity:1"
       id="rect5632"
       width="102.70988"
       height="102.70988"
       x="-171.7524"
       y="-20.65172"
       transform="rotate(-45)" />
    <path
       id="path5634"
       style="fill-opacity:0;stroke:#8a1831;stroke-width:0.486345;stroke-linecap:square;stroke-miterlimit:4;stroke-dasharray:0.486345, 1.45904;stroke-dashoffset:1.02133;stroke-opacity:1"
       d="M -133.86961,107.11245 -63.676419,37.643486 6.626844,107.11245 -63.487289,176.47073 Z"
       sodipodi:nodetypes="ccccc" />
    <rect
       style="fill:#be2a2a;fill-opacity:0;stroke:#8a1831;stroke-width:1.44531;stroke-linecap:square;stroke-miterlimit:4;stroke-dasharray:none;stroke-opacity:1"
       id="rect5636"
       width="102.70988"
       height="102.70988"
       x="73.086433"
       y="224.1871"
       transform="rotate(-45)" />
    <path
       id="path5638"
       style="fill-opacity:0;stroke:#8a1831;stroke-width:0.486345;stroke-linecap:square;stroke-miterlimit:4;stroke-dasharray:0.486345, 1.45904;stroke-dashoffset:1.02133;stroke-opacity:1"
       d="m 212.38655,107.11253 70.19338,-69.46896 70.30381,69.46896 -70.11468,69.35828 z"
       sodipodi:nodetypes="ccccc" />
    <path
       style="fill:#be2a2a;fill-opacity:0.996212;stroke:#8a1831;stroke-width:1.99999;stroke-linecap:butt;stroke-linejoin:miter;stroke-miterlimit:4;stroke-dasharray:none;stroke-opacity:1"
       d="M -45.28062,-34.30376 H 264.14597"
       id="path5673" />
    <path
       style="fill:#be2a2a;fill-opacity:0.996212;stroke:#8a1831;stroke-width:1.99999;stroke-linecap:butt;stroke-linejoin:miter;stroke-miterlimit:4;stroke-dasharray:none;stroke-opacity:1"
       d="M -45.28062,262.55984 H 264.14597"
       id="path6806" />
    <path
       id="path14518"
       style="fill:#8a1831;stroke-width:0;stroke-linecap:square;stroke-miterlimit:0;stroke-dashoffset:5.34161"
       inkscape:transform-center-x="0.41567014"
       inkscape:transform-center-y="-0.0023202851"
       d="m -43.561489,-31.664935 0.0044,-2.57203 0.0044,-2.572029 -4.889563,-1.597993 c 0,0 1.083298,1.074797 0.694432,2.078222 -0.388866,1.003425 -3.725172,2.078223 -3.725172,2.078223 0,0 3.331072,1.078625 3.718033,2.083408 0.386961,1.004783 -0.70157,2.083407 -0.70157,2.083407 z"
       sodipodi:nodetypes="cccczczcc" />
    <path
       id="path15444"
       style="fill:#8a1831;stroke-width:0;stroke-linecap:square;stroke-miterlimit:0;stroke-dashoffset:5.34161"
       inkscape:transform-center-x="-0.41567014"
       inkscape:transform-center-y="-0.0023202851"
       d="m 262.86191,-31.606532 -0.004,-2.57203 -0.004,-2.572029 4.88959,-1.597993 c 0,0 -1.0833,1.074796 -0.69443,2.078222 0.38887,1.003426 3.72519,2.078223 3.72519,2.078223 0,0 -3.33109,1.078623 -3.71805,2.083408 -0.38696,1.004785 0.70157,2.083407 0.70157,2.083407 z"
       sodipodi:nodetypes="cccczczcc" />
    <path
       id="path15446"
       style="fill:#8a1831;stroke-width:0;stroke-linecap:square;stroke-miterlimit:0;stroke-dashoffset:5.34161"
       inkscape:transform-center-x="0.41567014"
       inkscape:transform-center-y="-0.0023202851"
       d="m -43.561489,264.84337 0.0044,-2.57203 0.0044,-2.57203 -4.889563,-1.59799 c 0,0 1.083298,1.0748 0.694432,2.07822 -0.388866,1.00342 -3.725172,2.07822 -3.725172,2.07822 0,0 3.331072,1.07863 3.718033,2.08341 0.386961,1.00478 -0.70157,2.08341 -0.70157,2.08341 z"
       sodipodi:nodetypes="cccczczcc" />
    <path
       id="path15448"
       style="fill:#8a1831;stroke-width:0;stroke-linecap:square;stroke-miterlimit:0;stroke-dashoffset:5.34161"
       inkscape:transform-center-x="-0.41567014"
       inkscape:transform-center-y="-0.0023202851"
       d="m 262.24021,264.9918 -0.004,-2.57203 -0.004,-2.57203 4.88959,-1.59799 c 0,0 -1.0833,1.07479 -0.69443,2.07822 0.38887,1.00343 3.72519,2.07822 3.72519,2.07822 0,0 -3.33109,1.07862 -3.71805,2.08341 -0.38696,1.00479 0.70157,2.08341 0.70157,2.08341 z"
       sodipodi:nodetypes="cccczczcc" />
  </g>
</svg>
